<svg fill="#80959F" xmlns:dc="http://purl.org/dc/elements/1.1/" xmlns:cc="http://creativecommons.org/ns#" xmlns:rdf="http://www.w3.org/1999/02/22-rdf-syntax-ns#" xmlns:svg="http://www.w3.org/2000/svg" xmlns="http://www.w3.org/2000/svg" xmlns:sodipodi="http://sodipodi.sourceforge.net/DTD/sodipodi-0.dtd" xmlns:inkscape="http://www.inkscape.org/namespaces/inkscape" viewBox="0 0 32 32.000001" version="1.1" x="0px" y="0px"><g transform="translate(0,-1020.3622)"><path d="m 26,1037.6122 v -9.75 c 0,-2.216 -3.122,-4 -7,-4 h -6 c -3.878,0 -7,1.784 -7,4 v 17 c 0,2.216 3.122,4 7,4 h 6 c 3.878,0 7,-1.784 7,-4 v -4.25" style="opacity:1;fill:none;fill-opacity:1;stroke:#80959F;stroke-width:1;stroke-linecap:butt;stroke-linejoin:round;stroke-miterlimit:4;stroke-dasharray:none;stroke-dashoffset:0;stroke-opacity:1"></path><path style="opacity:1;fill:none;fill-opacity:1;stroke:#80959F;stroke-width:1;stroke-linecap:butt;stroke-linejoin:round;stroke-miterlimit:4;stroke-dasharray:none;stroke-dashoffset:0;stroke-opacity:1" d="m 12,1048.8622 v -7 c 0,-1.662 1.338,-3 3,-3 h 2 c 1.662,0 3,1.338 3,3 v 7"></path><circle style="opacity:1;fill:none;fill-opacity:1;stroke:#80959F;stroke-width:1;stroke-linecap:butt;stroke-linejoin:round;stroke-miterlimit:4;stroke-dasharray:none;stroke-dashoffset:0;stroke-opacity:1" cx="16" cy="1029.3622" r="2.5"></circle><path style="" d="m 16,1026.8691 v 1.236" fill="none" stroke="#80959F" stroke-width="0.99999994px" stroke-linecap="round" stroke-linejoin="miter" stroke-opacity="1"></path><circle style="opacity:1;fill:none;fill-opacity:1;stroke:#80959F;stroke-width:1;stroke-linecap:round;stroke-linejoin:round;stroke-miterlimit:4;stroke-dasharray:none;stroke-dashoffset:0;stroke-opacity:1" cx="16" cy="1043.1122" r="1.2500174"></circle><path style="" d="m 15.007029,1046.3622 h 1.985942" fill="none" stroke="#80959F" stroke-width="1px" stroke-linecap="round" stroke-linejoin="round" stroke-opacity="1"></path><path style="" d="m 16,1038.8622 v 1.5" fill="none" stroke="#80959F" stroke-width="1px" stroke-linecap="butt" stroke-linejoin="miter" stroke-opacity="1"></path><path style="" d="m 9.5,1024.3622 v 13.25" fill="none" stroke="#80959F" stroke-width="1px" stroke-linecap="butt" stroke-linejoin="miter" stroke-opacity="1"></path><path d="m 22.5,1024.3622 v 13.25" style="" fill="none" stroke="#80959F" stroke-width="1px" stroke-linecap="butt" stroke-linejoin="miter" stroke-opacity="1"></path><path style="" d="m 26,1039.6122 v -1" fill="none" stroke="#80959F" stroke-width="1px" stroke-linecap="butt" stroke-linejoin="miter" stroke-opacity="1"></path></g></svg>