<svg fill="#80959F" xmlns="http://www.w3.org/2000/svg" xmlns:xlink="http://www.w3.org/1999/xlink" version="1.1" x="0px" y="0px" viewBox="0 0 100 100" enable-background="new 0 0 100 100" xml:space="preserve"><path fill="none" stroke="#80959F" stroke-width="2" stroke-miterlimit="10" d="M71.989,74.772  c-5.075,3.294-12.291,5.865-20.739,5.865c-8.547,0-17.318-2.132-22.394-5.493"></path><path fill="none" stroke="#80959F" stroke-width="3" stroke-miterlimit="10" d="M71.989,73.452c0,1.657-1.343,3-3,3H31.856  c-1.657,0-3-1.343-3-3V12.125c0-1.657,1.343-3,3-3h37.133c1.657,0,3,1.343,3,3V73.452z"></path><line fill="none" stroke="#80959F" stroke-width="3" stroke-miterlimit="10" x1="28.856" y1="17.829" x2="71.989" y2="17.829"></line><polyline fill="none" stroke="#80959F" stroke-width="3" stroke-miterlimit="10" points="40.318,79.637 40.318,88.602 45.32,88.602   45.32,80.637 "></polyline><polyline fill="none" stroke="#80959F" stroke-width="3" stroke-miterlimit="10" points="54.318,80.637 54.318,88.602 59.32,88.602   59.32,79.637 "></polyline><ellipse fill="none" stroke="#80959F" stroke-width="2" stroke-miterlimit="10" cx="42.819" cy="90.482" rx="3.961" ry="1.37"></ellipse><ellipse fill="none" stroke="#80959F" stroke-width="2" stroke-miterlimit="10" cx="56.819" cy="90.482" rx="3.961" ry="1.37"></ellipse><circle fill="none" stroke="#80959F" stroke-width="2" stroke-miterlimit="10" cx="60.389" cy="52.989" r="2.292"></circle><circle fill="none" stroke="#80959F" stroke-width="2" stroke-miterlimit="10" cx="60.389" cy="61.989" r="2.292"></circle><path fill="none" stroke="#80959F" stroke-width="2" stroke-miterlimit="10" d="M66.285,27.878c0,1.129-0.916,2.045-2.045,2.045  h-6.877c-1.129,0-2.045-0.916-2.045-2.045l0,0c0-1.129,0.916-2.045,2.045-2.045h6.877C65.369,25.833,66.285,26.749,66.285,27.878  L66.285,27.878z"></path><path fill="none" stroke="#80959F" stroke-width="2" stroke-miterlimit="10" d="M67.458,63.238c0,3.905-3.165,7.07-7.069,7.07l0,0  c-3.905,0-7.07-3.165-7.07-7.07V51.741c0-3.905,3.165-7.07,7.07-7.07l0,0c3.904,0,7.069,3.165,7.069,7.07V63.238z"></path></svg>