<?xml version="1.0" encoding="utf-8"?>
<!-- Generator: Adobe Illustrator 22.0.1, SVG Export Plug-In . SVG Version: 6.00 Build 0)  -->
<svg version="1.1" id="Calque_1" xmlns="http://www.w3.org/2000/svg" xmlns:xlink="http://www.w3.org/1999/xlink" x="0px" y="0px"
	 viewBox="0 0 100 100" style="enable-background:new 0 0 100 100;" xml:space="preserve">
<style type="text/css">
	.st0{fill:#EF7900;}
</style>
<path class="st0" d="M91.8,36.5H64.7c-1.5,0-2.9-1-3.3-2.5L53.3,7.5c-1-3.3-5.7-3.3-6.7,0l-8.1,26.6c-0.4,1.5-1.8,2.5-3.3,2.5h-27
	c-3.3,0-4.8,4.2-2.1,6.2l22.1,16.8c1.2,0.9,1.7,2.4,1.2,3.8L21,90.5c-1,3.2,2.7,5.8,5.4,3.8l21.5-16.4c1.2-1,3-1,4.2,0l21.5,16.4
	c2.7,2.1,6.4-0.6,5.4-3.8l-8.4-27.1c-0.4-1.4,0.1-2.9,1.2-3.8l22.1-16.8C96.6,40.8,95.2,36.5,91.8,36.5z"/>
</svg>
