<?xml version="1.0" encoding="utf-8"?>
<!-- Generator: Adobe Illustrator 22.0.1, SVG Export Plug-In . SVG Version: 6.00 Build 0)  -->
<svg version="1.1" id="Calque_1" xmlns="http://www.w3.org/2000/svg" xmlns:xlink="http://www.w3.org/1999/xlink" x="0px" y="0px"
	 viewBox="0 0 100 100" style="enable-background:new 0 0 100 100;" xml:space="preserve">
<style type="text/css">
	.st0{fill:#EF7905;}
</style>
<path class="st0" d="M98,38c-0.9-2.7-3.3-4.5-6.2-4.5H64.7c-0.1,0-0.3-0.1-0.4-0.4L56.2,6.6C55.4,3.8,52.9,2,50,2
	c-2.9,0-5.4,1.8-6.3,4.6l-8.1,26.6l-0.1,0.2c0,0.1-0.2,0.2-0.3,0.2h-27c-2.9,0-5.3,1.8-6.2,4.5c-0.9,2.6,0.1,5.5,2.3,7.1L26.4,62
	c0.1,0.1,0.2,0.2,0.1,0.4l-8.5,27.2c-0.9,2.7,0.1,5.6,2.5,7.3c1.1,0.8,2.4,1.2,3.7,1.2c1.4,0,2.8-0.4,3.9-1.3l21.5-16.4
	c0.2-0.1,0.4-0.1,0.6,0l21.4,16.3c1.1,1,2.5,1.4,4,1.4c1.4,0,2.5-0.4,3.7-1.2c2.3-1.6,3.3-4.5,2.5-7.2l-8.4-27.1
	c-0.1-0.2,0-0.5,0.1-0.5l22.1-16.8C98,43.5,98.9,40.7,98,38z M92.1,40.4l-22,16.9L70,57.4c-2,1.7-2.8,4.4-2.1,7l8.4,27.1
	c0,0.1,0.1,0.3-0.2,0.6c0,0-0.2,0.2-0.5-0.1L54.1,75.6c-1.1-0.9-2.5-1.4-4.1-1.4c-1.4,0-2.7,0.4-3.9,1.3L24.6,91.9
	c-0.2,0.1-0.5-0.1-0.5-0.1c-0.2-0.2-0.2-0.2-0.2-0.5l8.3-27c1-2.6,0.1-5.4-2.2-7.1L7.9,40.4c-0.3-0.2-0.2-0.3-0.2-0.4
	c0-0.1,0.2-0.4,0.5-0.4h27c2.9,0,5.5-1.9,6.2-4.6l8.1-26.6C49.5,8.3,49.6,8,50,8c0,0,0.3,0,0.4,0.4l8.1,26.4
	c0.7,2.8,3.3,4.7,6.2,4.7h27.1c0.2,0,0.4,0,0.5,0.4C92.4,40,92.4,40.2,92.1,40.4z"/>
</svg>
