<?xml version="1.0" encoding="utf-8"?>
<!-- Generator: Adobe Illustrator 22.0.1, SVG Export Plug-In . SVG Version: 6.00 Build 0)  -->
<svg version="1.1" id="Calque_1" xmlns="http://www.w3.org/2000/svg" xmlns:xlink="http://www.w3.org/1999/xlink" x="0px" y="0px"
	 viewBox="0 0 50 50" style="enable-background:new 0 0 50 50;" xml:space="preserve">
<style type="text/css">
	.st0{fill:#8195A0;}
	.st1{fill-rule:evenodd;clip-rule:evenodd;fill:#8195A0;}
</style>
<g>
	<g>
		<path class="st0" d="M44.4,18.4c2.7,8.3-0.3,17.4-7.3,22.6c-7.1,5.1-16.7,5.1-23.7,0C6.2,35.8,3.3,26.7,6,18.4
			c2.7-8.3,10.5-14,19.2-14C33.9,4.4,41.7,10,44.4,18.4z M25.2,6.2c-8,0-15,5.1-17.5,12.7c-2.5,7.6,0.2,15.9,6.7,20.5
			c6.4,4.7,15.2,4.7,21.6,0c6.4-4.7,9.1-13,6.7-20.5C40.2,11.4,33.1,6.2,25.2,6.2z"/>
	</g>
	<path class="st1" d="M27.9,18.8c0.5,0,1.1,0,1.6,0c0.1,0,0.1,0,0.2,0v-2.9c-0.3,0-0.6-0.1-0.9-0.1c-0.6,0-1.1-0.1-1.7,0
		c-0.9,0-1.7,0.2-2.4,0.7c-0.8,0.6-1.3,1.4-1.4,2.4c-0.1,0.4-0.1,0.8-0.1,1.2c0,0.6,0,1.3,0,1.9v0.2h-2.7v3.2h2.7v8h3.3v-8h2.7
		c0.1-1.1,0.3-2.1,0.4-3.2c-0.2,0-0.4,0-0.6,0c-0.8,0-2.5,0-2.5,0s0-1.6,0-2.3C26.6,19.1,27.2,18.8,27.9,18.8z"/>
</g>
<g>
	<g>
		<path class="st0" d="M-7.1,81.4c2.7,8.3-0.3,17.4-7.3,22.6c-7.1,5.1-16.7,5.1-23.7,0c-7.1-5.1-10-14.3-7.3-22.6
			c2.7-8.3,10.5-14,19.2-14C-17.5,67.4-9.8,73-7.1,81.4z M-26.3,69.2c-8,0-15,5.1-17.5,12.7c-2.5,7.6,0.2,15.9,6.7,20.5
			c6.4,4.7,15.2,4.7,21.6,0c6.4-4.7,9.1-13,6.7-20.5C-11.3,74.4-18.3,69.2-26.3,69.2z"/>
	</g>
	<path class="st1" d="M-29.3,92c-2-0.1-3.3-1.5-3.6-2.7c0.6,0.1,1.1,0.1,1.7,0c0,0,0,0,0.1,0c-1.1-0.3-2-0.8-2.5-1.8
		c-0.4-0.6-0.6-1.3-0.6-2.1c0.6,0.3,1.1,0.5,1.7,0.5c-0.8-0.6-1.4-1.4-1.6-2.4c-0.2-1-0.1-1.9,0.4-2.8c2.1,2.5,4.8,3.9,8.1,4.1
		c0-0.2,0-0.3-0.1-0.4c-0.1-0.9,0.1-1.8,0.6-2.6c0.6-1,1.5-1.6,2.7-1.8c1.3-0.2,2.5,0.2,3.4,1.1c0.1,0.1,0.1,0.1,0.2,0.1
		c0.8-0.2,1.6-0.5,2.3-0.9c0,0,0,0,0.1,0c0,0,0,0,0,0c-0.3,0.9-0.9,1.6-1.7,2.1c0.8-0.1,1.5-0.3,2.2-0.6c0,0,0,0,0,0
		c-0.1,0.2-0.3,0.4-0.4,0.6c-0.4,0.5-0.9,1-1.4,1.4c0,0-0.1,0.1-0.1,0.1c0,0.6,0,1.2-0.1,1.7c-0.2,1.2-0.5,2.4-1,3.5
		c-0.5,1.1-1.2,2.2-2.1,3.1c-1.5,1.5-3.3,2.5-5.4,3c-0.7,0.2-1.4,0.2-2.2,0.3c-2.3,0.1-4.3-0.5-6.3-1.7c0,0,0,0-0.1-0.1
		c1.4,0.1,2.7,0,3.9-0.5C-30.5,92.8-29.9,92.4-29.3,92z"/>
</g>
<g>
	<g>
		<path class="st0" d="M44.5,78.4c2.7,8.3-0.3,17.4-7.3,22.6c-7.1,5.1-16.7,5.1-23.7,0c-7.1-5.1-10-14.3-7.3-22.6
			c2.7-8.3,10.5-14,19.2-14S41.8,70,44.5,78.4z M25.3,66.2c-8,0-15,5.1-17.5,12.7C5.3,86.5,8,94.8,14.5,99.5
			c6.4,4.7,15.2,4.7,21.6,0c6.4-4.7,9.1-13,6.7-20.5C40.3,71.4,33.2,66.2,25.3,66.2z"/>
	</g>
	<g>
		<path class="st0" d="M22.5,83.4c0,0,0,0.1,0,0.1c0,0.9,0,2.7,0,2.7s3.5,0,3.7,0c0,0.3-0.3,1.4-1.4,2.1c-0.6,0.4-1.3,0.6-2,0.6
			c-0.5,0-1,0-1.5-0.2c-1.6-0.5-2.7-1.9-2.9-3.6c0-0.4,0-0.8,0.1-1.3c0.5-2,2.4-3.5,4.6-3.2c1,0.1,1.5,0.5,2,1c0.7-0.7,1.3-1.3,2-2
			c-0.2-0.1-0.6-0.5-1.2-0.9c-1-0.6-2.1-0.9-3.3-0.9c-0.2,0-0.4,0-0.7,0c-0.4,0-0.8,0.1-1.1,0.2c-1.5,0.4-2.8,1.2-3.7,2.4
			c-0.9,1.2-1.4,2.5-1.5,4c0,0.6,0,1.3,0.1,1.9c0.4,1.7,1.3,3.1,2.7,4.2c1.1,0.8,2.4,1.2,3.7,1.3c0.8,0,1.5,0,2.3-0.2
			c1.4-0.4,2.6-1.1,3.4-2.3c1.3-1.7,1.6-3.8,1.2-5.9C26.8,83.4,24.7,83.4,22.5,83.4z"/>
		<polygon class="st0" points="37.4,83.5 35.1,83.5 35.1,81.1 35.1,81 35,81 33.3,81 33.2,81 33.2,81.1 33.2,83.5 30.8,83.5 
			30.8,83.5 30.8,83.5 30.8,85.3 30.8,85.4 30.8,85.4 33.2,85.4 33.2,87.7 33.2,87.8 33.3,87.8 35,87.8 35.1,87.8 35.1,87.7 
			35.1,85.4 37.4,85.4 37.5,85.4 37.5,85.3 37.5,83.5 37.5,83.5 		"/>
	</g>
</g>
<g>
	<g>
		<path class="st0" d="M96,76.4c2.7,8.3-0.3,17.4-7.3,22.6c-7.1,5.1-16.7,5.1-23.7,0c-7.1-5.1-10-14.3-7.3-22.6
			c2.7-8.3,10.5-14,19.2-14C85.6,62.4,93.3,68,96,76.4z M76.8,64.2c-8,0-15,5.1-17.5,12.7c-2.5,7.6,0.2,15.9,6.7,20.5
			c6.4,4.7,15.2,4.7,21.6,0c6.4-4.7,9.1-13,6.7-20.5C91.8,69.4,84.8,64.2,76.8,64.2z"/>
	</g>
	<path class="st1" d="M76.1,85.5c0,0.1,0,0.1,0,0.1c-0.7,2.6-0.7,3.2-1.4,4.4c-0.3,0.6-0.7,1.1-1.1,1.6c0,0.1-0.1,0.1-0.2,0.1
		c-0.1,0-0.1-0.1-0.1-0.2c-0.1-0.8-0.2-1.6-0.1-2.4c0-1,0.2-1.4,1.5-7.1c0-0.1,0-0.2,0-0.2c-0.3-0.9-0.4-1.8-0.1-2.6
		c0.6-1.9,2.8-2.1,3.2-0.5c0.2,1-0.4,2.3-0.9,4.2c-0.4,1.6,1.5,2.7,3,1.5c1.5-1.1,2-3.6,1.9-5.4c-0.2-3.6-4.2-4.4-6.6-3.2
		c-2.9,1.3-3.5,4.9-2.2,6.5c0.2,0.2,0.3,0.3,0.2,0.5c-0.1,0.3-0.2,0.7-0.2,1c-0.1,0.2-0.3,0.3-0.5,0.2c-0.5-0.2-0.9-0.5-1.2-0.9
		c-1.1-1.4-1.4-4,0-6.3c1.6-2.5,4.6-3.5,7.3-3.2c3.3,0.4,5.3,2.6,5.7,5.1c0.2,1.2,0,4-1.6,6c-1.9,2.3-4.9,2.5-6.3,1
		C76.3,85.7,76.2,85.6,76.1,85.5z"/>
</g>
</svg>
