<?xml version="1.0" encoding="utf-8"?>
<!-- Generator: Adobe Illustrator 22.0.1, SVG Export Plug-In . SVG Version: 6.00 Build 0)  -->
<svg version="1.1" id="Calque_1" xmlns="http://www.w3.org/2000/svg" xmlns:xlink="http://www.w3.org/1999/xlink" x="0px" y="0px"
	 viewBox="0 0 64 64" style="enable-background:new 0 0 64 64;" xml:space="preserve">
<style type="text/css">
	.st0{fill:#EF7900;}
</style>
<path class="st0" d="M58.1,43.7l5-24.3c0.3-1.3-0.1-2.6-0.9-3.6c-0.8-1-2-1.6-3.3-1.6H15.7l-1-4.9c-0.3-1.4-1.2-2.5-2.5-3.1L4.3,2.8
	C3.7,2.6,3,2.6,2.4,2.8C1.8,3,1.3,3.5,1,4.1C0.8,4.7,0.8,5.4,1,6.1c0.2,0.6,0.7,1.1,1.3,1.4l7.5,3.3l8.6,41.8c0.4,2,2.2,3.4,4.2,3.4
	h2.7c0,0.1,0,0.2,0,0.3c0,2.9,2.3,5.2,5.2,5.2c2.9,0,5.2-2.3,5.2-5.2c0-0.1,0-0.2,0-0.3h12.4c0,0.1,0,0.2,0,0.3
	c0,2.9,2.3,5.2,5.2,5.2c2.9,0,5.2-2.3,5.2-5.2c0-2.3-1.5-4.4-3.7-5c-0.2-0.1-0.4-0.1-0.5-0.1l0,0h-0.2c-0.2-0.1-0.4-0.1-0.6-0.1
	H23.3l-0.8-3.7h31.3C55.9,47.2,57.7,45.7,58.1,43.7z M52.2,54.9L52.2,54.9c0.3-0.3,0.7-0.5,1.2-0.5h0.1c0.4,0,0.9,0.2,1.2,0.5
	c0,0,0,0,0.1,0.1c0.3,0.3,0.5,0.8,0.5,1.2c0,1-0.8,1.8-1.8,1.8c-1,0-1.8-0.8-1.8-1.8C51.7,55.7,51.8,55.2,52.2,54.9z M29.3,54.9
	L29.3,54.9c0.3-0.3,0.7-0.5,1.2-0.5h0.1c0.4,0,0.9,0.2,1.2,0.5c0,0,0,0,0.1,0.1c0.3,0.3,0.5,0.8,0.5,1.2c0,1-0.8,1.8-1.8,1.8
	c-1,0-1.8-0.8-1.8-1.8C28.8,55.7,29,55.2,29.3,54.9z M45.9,38.6H30.8c-1.2,0-2.2-1-2.2-2.2s1-2.2,2.2-2.2h15.1c1.2,0,2.2,1,2.2,2.2
	S47.1,38.6,45.9,38.6z M47.6,27.2H29.1c-1.2,0-2.2-1-2.2-2.2s1-2.2,2.2-2.2h18.5c1.2,0,2.2,1,2.2,2.2C49.8,26.2,48.8,27.2,47.6,27.2
	z"/>
</svg>
