<svg xmlns:cc="http://creativecommons.org/ns#" xmlns:dc="http://purl.org/dc/elements/1.1/" xmlns:inkscape="http://www.inkscape.org/namespaces/inkscape" xmlns:rdf="http://www.w3.org/1999/02/22-rdf-syntax-ns#" xmlns:sodipodi="http://sodipodi.sourceforge.net/DTD/sodipodi-0.dtd" xmlns:svg="http://www.w3.org/2000/svg" xmlns="http://www.w3.org/2000/svg" xmlns:xlink="http://www.w3.org/1999/xlink" version="1.1" style="" xml:space="preserve" width="100" height="100"><rect id="backgroundrect" width="100%" height="100%" x="0" y="0" fill="none" stroke="none"/>

<g class="currentLayer" style=""><title>Layer 1</title><g id="svg_1" class="" fill-opacity="1" fill="#c0c8ce">
	<path d="M50,12.037817382812477 c-8.8,0 -16,7.2 -16,16 s7.2,16 16,16 s16,-7.2 16,-16 S58.8,12.037817382812477 50,12.037817382812477 zM50,47.03781738281248 c-8.5,0 -16.2,2.3 -21.8,6.1 c-5.6,3.8 -9.2,9.1 -9.2,14.9 v22 c0,0.5 0.5,1 1,1 h60 c0.5,0 1,-0.5 1,-1 v-22 c0,-5.8 -3.6,-11.1 -9.2,-14.9 C66.2,49.337817382812545 58.5,47.03781738281248 50,47.03781738281248 L50,47.03781738281248 z" id="svg_2" fill="#c0c8ce"/>
</g></g></svg>