<?xml version="1.0" encoding="utf-8"?>
<!-- Generator: Adobe Illustrator 16.0.0, SVG Export Plug-In . SVG Version: 6.00 Build 0)  -->
<!DOCTYPE svg PUBLIC "-//W3C//DTD SVG 1.1//EN" "http://www.w3.org/Graphics/SVG/1.1/DTD/svg11.dtd">
<svg version="1.1" id="Calque_1" xmlns="http://www.w3.org/2000/svg" xmlns:xlink="http://www.w3.org/1999/xlink" x="0px" y="0px"
	 width="595.279px" height="841.89px" viewBox="0 0 595.279 841.89" enable-background="new 0 0 595.279 841.89"
	 xml:space="preserve">
<g>
	<path fill="#8195A0" d="M526.984,340.358c32.146,98.816-3.571,207.156-86.911,269.066c-84.529,60.719-198.823,60.719-282.162,0
		c-85.721-61.91-120.247-170.25-88.102-269.066c32.145-98.816,125.009-166.679,228.587-166.679
		C401.975,173.679,494.838,240.35,526.984,340.358z M298.396,195.109c-95.244,0-178.584,60.719-208.348,151.201
		c-29.764,90.483,2.381,189.3,79.768,244.065c76.196,55.955,180.965,55.955,257.161,0c76.195-55.957,108.341-154.773,79.768-244.065
		C476.98,257.018,392.45,195.109,298.396,195.109z"/>
</g>
<path fill="#8195A0" d="M391.355,316.962H205.291c-26.288,0-47.597,21.311-47.597,47.598v99.522
	c0,26.288,21.31,47.598,47.597,47.598h186.063c26.288,0,47.598-21.31,47.598-47.598V364.56
	C438.952,338.273,417.643,316.962,391.355,316.962z M341.636,419.092c-0.994,1.941-2.574,3.522-4.517,4.517l-32.522,16.755
	l-35.592,18.264c-5.118,2.616-11.388,0.588-14.002-4.53c-0.741-1.449-1.131-3.052-1.14-4.679v-70.145
	c0.003-5.747,4.665-10.404,10.412-10.401c1.644,0.001,3.265,0.392,4.73,1.14l35.592,18.316l32.522,16.755
	C342.235,407.705,344.257,413.976,341.636,419.092z"/>
</svg>
